<?xml version="1.0" encoding="utf-8"?>
<!-- Svg Vector Icons : http://www.onlinewebfonts.com/icon -->
<!DOCTYPE svg PUBLIC "-//W3C//DTD SVG 1.1//EN" "http://www.w3.org/Graphics/SVG/1.1/DTD/svg11.dtd">
<svg version="1.1" xmlns="http://www.w3.org/2000/svg" xmlns:xlink="http://www.w3.org/1999/xlink" x="0px" y="0px" viewBox="0 0 1000 1000" enable-background="new 0 0 1000 1000" xml:space="preserve">
<metadata> Svg Vector Icons : http://www.onlinewebfonts.com/icon </metadata>
<g><g transform="translate(0.000000,511.000000) scale(0.100000,-0.100000)"><path d="M5598.9,4439.5c-86.3-23-130.4-65.2-101.6-94c11.5-11.5,113.1-53.7,228.2-95.9c469.8-172.6,623.2-297.2,801.5-646.2c61.3-120.8,107.4-220.5,103.5-226.3c-3.8-3.8-94-28.8-199.4-57.5c-170.7-46-210.9-49.9-404.6-38.3c-172.6,9.6-421.9,36.4-531.2,55.6c-44.1,9.6-24.9-49.8,38.4-120.8c95.9-107.4,172.6-147.7,563.8-303c184.1-74.8,408.4-166.8,496.7-203.3c88.2-38.3,256.9-101.6,372-138.1c163-53.7,228.2-86.3,287.6-140c71-67.1,76.7-80.5,82.5-186c3.8-61.4,28.8-189.8,55.6-283.8c28.8-97.8,59.4-278,72.9-418c24.9-247.4,24.9-247.4-17.2-257c-24.9-5.7-80.5,9.6-138.1,38.3c-366.3,186-943.5,318.3-1386.4,318.3c-84.4,0-230.1,17.3-329.8,40.3c-510.1,115.1-602.1,117-1039.3,26.8c-182.2-36.4-383.5-67.1-456.4-67.1c-489,0-1075.8-138.1-1465-345.2c-172.6-92-176.4-94-189.8-51.8c-5.8,23-30.7,61.4-51.8,86.3l-40.3,44.1l63.3,195.6c34.5,107.4,115.1,293.4,176.4,412.3c63.3,120.8,118.9,251.2,124.6,293.4c23,134.2,155.3,195.6,477.5,218.6c95.9,5.8,237.8,24.9,316.4,38.3c78.6,15.3,335.6,57.5,571.4,95.9c437.2,69,548.4,103.6,652,201.3c59.4,55.6,53.7,76.7-21.1,76.7c-101.6,0-512,55.6-634.7,86.3c-61.4,17.3-184.1,69-272.3,117l-159.2,86.3l122.7,149.6c172.6,209,281.9,304.9,418,366.3c149.6,65.2,237.8,86.3,517.7,124.6c257,32.6,316.4,53.7,280,97.8c-42.2,51.8-193.7,117-352.8,153.4c-216.7,47.9-703.8,47.9-930,0c-429.5-92.1-832.2-283.8-1083.4-512c-80.5-72.9-230.1-187.9-333.7-257c-103.5-67.1-216.7-157.2-253.1-195.6c-34.5-40.3-86.3-82.5-115.1-95.9c-88.2-36.4-205.2-157.2-237.8-245.4c-40.3-101.6-32.6-327.9,19.2-678.8c34.5-224.4,34.5-245.4,3.8-421.9c-34.5-207.1-24.9-287.6,53.7-443c40.3-78.6,44.1-101.6,26.8-153.4c-30.7-86.3-13.4-203.3,49.9-331.7c49.9-99.7,51.8-117,28.8-153.4c-138.1-214.8-210.9-425.7-228.2-652l-11.5-168.7L1495.3-132c-103.5,72.9-143.8,117-241.6,274.2c-207.1,331.7-222.4,370.1-233.9,567.6c-5.8,122.7,3.8,262.7,32.6,456.4c36.4,249.3,140,809.2,168.8,908.9c19.2,69-86.3-44.1-161.1-172.6c-118.9-201.3-350.9-740.2-370.1-862.9c-11.5-63.3-24.9-239.7-30.7-393.1l-13.4-278L841.4-20.8L1037-408.2l272.3-178.3c149.6-97.8,304.9-197.5,343.3-220.5c53.7-34.5,76.7-65.2,103.5-143.8c17.3-55.6,47.9-132.3,69-172.6l34.5-70.9h-65.2c-161.1,0-540.8,61.3-604,97.8c-36.4,21.1-172.6,126.6-303,233.9c-232,189.8-241.6,199.4-324.1,368.2C454-272,396.5-47.7,329.4,426l-55.6,383.5l-32.6-72.9C172.2,581.3,82-64.9,103.1-245.2c19.2-163,101.6-412.3,203.3-613.6c95.9-187.9,103.5-195.6,337.5-393.1c132.3-111.2,285.7-232,343.2-270.4c115.1-78.6,147.7-84.4,839.9-151.5c385.4-36.4,402.7-40.3,469.8-94c40.3-30.7,88.2-74.8,109.3-97.8l38.4-44.1l-124.6,11.5c-441,42.2-477.5,40.3-692.2-23c-377.8-109.3-632.8-220.5-671.2-291.5c-30.7-57.5-70.9-324.1-86.3-567.6c-11.5-191.8-7.7-216.7,36.4-335.6c53.7-141.9,339.4-711.4,350.9-701.8c3.8,5.8-11.5,191.8-32.6,418l-40.3,408.4l42.2,174.5c23,95.9,63.3,220.5,90.1,274.2c44.1,95.9,51.8,101.6,164.9,138.1c65.2,19.2,209,55.6,320.2,78.6l201.3,42.2l579.1-59.4l579.1-59.4l109.3-65.2l107.4-65.2l-140-11.5c-78.6-5.8-287.6-19.2-467.9-30.7c-492.8-30.7-500.5-32.6-563.8-109.3c-61.4-74.8-117-230.1-163-446.8c-42.2-205.2-74.8-490.9-59.4-535c17.3-59.4,251.2-266.6,425.7-379.7c143.8-93.9,356.7-197.5,406.5-197.5c11.5,0-38.4,72.8-109.3,161.1c-182.2,228.2-329.8,481.3-329.8,565.7c0,76.7,67.1,329.8,109.3,414.2c17.3,32.6,44.1,67.1,61.4,76.7c17.3,11.5,372,26.9,845.7,38.3l815,19.2l201.3-67.1l201.3-67.1h393.1h393.1l201.3,67.1l201.3,67.1l815-19.2c473.6-11.5,828.4-26.9,845.6-38.3c17.3-9.6,44.1-46,61.4-78.6c40.3-76.7,109.3-343.3,109.3-418c0-72.9-174.5-366.3-337.5-569.5c-67.1-84.4-113.1-151.5-103.6-151.5c11.5,0,71,21.1,134.2,46c166.8,69,427.6,245.4,579.1,395l136.1,130.4l-13.4,132.3c-44.1,439.1-145.7,793.9-255,891.7c-38.3,34.5-249.3,61.4-657.7,82.5c-120.8,5.7-280,15.3-350.9,21.1l-132.3,11.5l107.4,65.2c103.5,61.3,117,63.3,561.8,111.2c761.3,78.6,699.9,76.7,945.4,23c372-84.4,393.1-94,448.7-209c24.9-55.6,65.2-178.3,88.2-274.2l42.2-172.6l-40.3-410.4c-21.1-224.4-36.4-412.3-32.6-416.1c11.5-11.5,283.8,535,347.1,694.2c49.9,128.5,51.8,143.8,40.3,345.2c-15.3,232-59.4,512-90.1,567.6c-34.5,67.1-299.2,180.3-667.3,287.6c-214.8,63.3-251.2,65.2-692.2,23l-124.6-11.5l38.4,44.1c21.1,23,69,67.1,109.3,97.8c67.1,53.7,84.4,57.5,469.8,94c698,67.1,722.9,72.9,847.6,155.3c90.1,61.3,249.3,193.7,542.7,450.6c65.2,57.5,209,349,276.1,563.8c42.2,132.3,51.8,199.4,51.8,354.7c0,297.2-65.2,734.4-132.3,885.9l-32.6,72.9l-51.8-368.2c-69-477.5-132.3-721-237.8-935.8c-82.5-166.8-93.9-180.3-318.3-364.3c-320.2-264.6-329.8-268.5-613.6-304.9c-132.3-17.3-268.5-30.7-303-30.7h-61.4l34.5,70.9c21.1,40.3,51.8,117,69,172.6c30.7,90.1,46,107.4,161.1,180.3c71,44.1,226.3,145.7,343.3,222.4l216.7,143.8l191.8,385.4l191.7,387.4l21.1,257c34.5,414.2,24.9,475.6-145.7,885.9c-80.5,193.7-176.4,408.4-214.8,477.5c-63.3,118.9-138.1,218.6-153.4,205.2c-3.8-3.8,11.5-92.1,32.6-193.7c47.9-232,124.6-696.1,153.4-912.8c38.3-295.3-40.3-544.6-301.1-955c-92-145.7-136.1-193.7-235.9-264.6L8389-218.3l-13.4,168.7c-21.1,287.6-126.6,554.2-314.5,792c-107.4,136.2-109.3,186-7.7,316.4c103.6,134.2,134.2,216.7,134.2,360.5c0,153.4,34.5,287.6,151.5,577.2c180.2,452.5,180.2,581-7.7,770.9c-51.8,53.7-113.1,130.4-134.2,170.7s-113.1,153.4-203.3,249.3c-90.1,95.9-207.1,239.7-260.8,318.3c-235.9,349-765.1,717.2-1219.6,849.5C6166.5,4456.7,5783,4491.2,5598.9,4439.5z"/></g></g>
</svg>